Coordinates
version=1
nRows=14
nColumns=36
inDegrees=yes

Units are S.I. units (second, meters, Newtons, ...)
If the header above contains a line with 'inDegrees', this indicates whether rotational values are in degrees (yes) or radians (no).

endheader
time	pelvis_tilt	pelvis_list	pelvis_rotation	pelvis_tx	pelvis_ty	pelvis_tz	hip_flexion_r	hip_adduction_r	hip_rotation_r	knee_angle_r	knee_angle_r_beta	ankle_angle_r	subtalar_angle_r	mtp_angle_r	hip_flexion_l	hip_adduction_l	hip_rotation_l	knee_angle_l	knee_angle_l_beta	ankle_angle_l	subtalar_angle_l	mtp_angle_l	lumbar_extension	lumbar_bending	lumbar_rotation	arm_flex_r	arm_add_r	arm_rot_r	elbow_flex_r	pro_sup_r	arm_flex_l	arm_add_l	arm_rot_l	elbow_flex_l	pro_sup_l
      3.65000000	    -10.01034143	     -0.48306826	     -0.16599199	      1.55624061	      0.93947262	     -0.33021259	     18.36164218	     -2.24893629	      4.35545034	     14.21993716	      0.24818472	      5.01115023	    -13.38925476	     -7.49999987	     13.55789931	     -5.98444343	      0.98740620	     10.99502131	      0.19189932	     10.75603029	     -3.69507716	     -7.49999987	    -10.29879269	     -0.77096554	      5.03181342	      8.78670679	    -19.00958957	     13.68507514	    103.27264618	     94.43521786	      2.18021847	    -15.75723858	      8.74418232	     78.73637954	    102.33481978
      3.66666670	     -9.19405966	     -0.50201868	      0.15760575	      1.55489385	      0.94001374	     -0.33146160	     16.54932498	     -2.34929227	      4.74151472	     12.81760195	      0.22370936	      4.52803145	    -14.29303882	     -7.49999987	     11.67934342	     -5.74233854	      1.86726448	      9.27866930	      0.16194333	     10.67571894	     -3.98522024	     -7.49999987	    -10.24329584	     -0.63635758	      4.80889611	      7.75276564	    -19.68055864	     13.47359604	    103.50059368	     94.63656184	      1.08547595	    -16.12020180	      9.27979077	     78.12190316	    102.38389498
      3.68333330	     -8.72330874	     -0.43243679	      0.53183012	      1.55078578	      0.93601444	     -0.33462473	     15.42197152	     -2.56497408	      5.06390358	     11.84388273	      0.20671475	      4.25716130	    -15.03184357	     -7.49999987	     10.57597635	     -5.42797589	      2.72874070	      8.07631494	      0.14095829	     10.66683845	     -4.48002701	     -7.49999987	     -9.82096297	     -0.56422423	      4.47220003	      6.67624580	    -20.55460336	     13.16102070	    103.94317974	     94.00934640	     -0.25698324	    -16.29064741	      9.19104786	     78.22089592	    102.35078033
      3.70000000	     -8.31677930	     -0.32923698	      0.90117068	      1.55452404	      0.93910503	     -0.33863374	     14.35925596	     -2.85123051	      5.32794420	     10.94768099	      0.19107308	      4.14171515	    -15.59558575	     -7.49999987	      9.51031491	     -5.10363414	      3.41176022	      6.87783065	      0.12004079	     10.52458303	     -4.68297258	     -7.49999987	     -9.36982912	     -0.53486442	      4.22898808	      5.02501255	    -20.96712827	     12.04941975	    104.88602503	     94.27268318	     -1.38989011	    -16.19548186	      8.77994003	     78.20256187	    102.29482525
      3.71666670	     -7.86987640	     -0.24762681	      1.31836340	      1.55495672	      0.94297293	     -0.33892190	     13.31814790	     -3.09680277	      5.51449153	     10.17279758	      0.17754881	      4.05415994	    -16.10790012	     -7.49999987	      8.62340894	     -4.85302570	      4.05689567	      6.07638865	      0.10605299	     10.36999260	     -4.72920964	     -7.49999987	     -8.90140494	     -0.47074692	      3.77108769	      3.34773108	    -20.87646457	     11.30276900	    105.79563461	     94.56715861	     -2.43363799	    -16.25620365	      8.39823060	     78.01545254	    102.50577114
      3.73333330	     -7.59443592	     -0.18248697	      1.72615905	      1.55404545	      0.94150374	     -0.33874717	     12.63957731	     -3.31338549	      5.57535337	      9.70681582	      0.16941590	      4.20272408	    -16.35030032	     -7.49999987	      8.04705516	     -4.66305775	      4.74940145	      5.41646269	      0.09453511	     10.12815415	     -5.06456257	     -7.49999987	     -8.34115004	     -0.33396248	      4.07401284	      1.44448185	    -20.44080202	      9.69530575	    107.32261867	     95.62532537	     -2.88201567	    -16.21854337	      8.70610126	     78.71329029	    102.70238758
      3.75000000	     -7.15380828	     -0.13451094	      2.14643246	      1.55429966	      0.94687614	     -0.33869585	     11.76924231	     -3.49486009	      5.64491737	      9.23764216	      0.16122727	      4.18146020	    -16.65663046	     -7.49999987	      7.36808677	     -4.52525664	      5.16833000	      4.95526165	      0.08648563	      9.85054577	     -5.03246425	     -7.49999987	     -8.06816193	     -0.22016936	      3.86343154	      1.08243645	    -20.04583841	      9.80776123	    107.53679249	     95.81299946	     -3.25339337	    -16.32324191	      8.75180732	     79.81722557	    102.83290965
      3.76666670	     -6.80974934	     -0.11293166	      2.54843583	      1.55348603	      0.94862350	     -0.33951243	     11.06131833	     -3.62067374	      5.71618115	      8.82139157	      0.15396233	      4.15168120	    -16.98656623	     -7.49999987	      6.84118590	     -4.43290327	      5.80992445	      4.53618181	      0.07917131	      9.37412651	     -5.31350582	     -7.49999987	     -7.88014771	     -0.09787630	      3.71449094	      1.59743320	    -20.05814947	     10.55443083	    107.91705997	     96.25504208	     -3.50761275	    -16.47682805	      8.52747064	     81.82445504	    103.52529927
      3.78333330	     -6.53184931	     -0.09186730	      2.86237423	      1.55355116	      0.95355500	     -0.33873469	     10.52315066	     -3.71860584	      5.63314538	      8.55143829	      0.14925075	      4.23570764	    -16.93225984	     -7.49999987	      6.47036778	     -4.37279845	      6.09040160	      4.28281452	      0.07474921	      9.17446133	     -5.03066795	     -7.49999987	     -7.71463086	     -0.04648499	      3.80467897	      2.28196892	    -20.10073769	     10.98674178	    108.63220517	     96.39710510	     -3.13141784	    -16.73674353	      9.10398516	     83.39492117	    103.68873987
      3.80000000	     -6.12249641	     -0.10051235	      3.29372049	      1.55274932	      0.95746784	     -0.33921756	      9.84164938	     -3.76685284	      5.50510792	      8.24364708	      0.14387878	      4.25658347	    -16.99153479	     -7.49999987	      5.92665341	     -4.34351188	      6.60684177	      3.93368655	      0.06865578	      8.58510456	     -5.14470554	     -7.49999987	     -7.82730693	      0.00927833	      3.88181438	      3.32090015	    -20.32875244	     12.24973798	    110.13912099	     94.74240416	     -2.82248334	    -17.08507804	      9.61137831	     86.10393882	    102.36520452
      3.81666670	     -6.01786112	     -0.10707182	      3.65862775	      1.55290881	      0.95700903	     -0.34433404	      9.52355729	     -3.84681134	      5.36045532	      7.93070748	      0.13841696	      4.28172767	    -16.82057070	     -7.49999987	      5.73959811	     -4.29045249	      6.90469132	      3.60728070	      0.06295893	      8.37323252	     -4.87362875	     -7.49999987	     -7.44974900	      0.04098065	      4.06241935	      4.01837958	    -20.57703994	     12.78819249	    112.60624608	     95.15190035	     -2.46685511	    -17.26485813	     10.11670909	     89.67288381	    102.86226993
      3.83333330	     -5.40609965	     -0.08698059	      4.01118542	      1.55177592	      0.95450959	     -0.34517302	      8.63778919	     -3.91044133	      5.13916409	      7.59855095	      0.13261973	      4.45952008	    -16.60989669	     -7.49999987	      4.97045398	     -4.23167735	      7.21655308	      3.26711170	      0.05702186	      8.04723717	     -4.76299684	     -7.49999987	     -7.82669817	     -0.05845011	      3.64717782	      5.55946549	    -20.54407770	     13.14707284	    115.17903375	     97.72959931	     -2.33130392	    -17.14389031	      9.33119105	     94.63657786	    106.67600837
      3.85000000	     -5.03907236	     -0.08739150	      4.28694534	      1.55143828	      0.95612758	     -0.34426029	      8.03309719	     -3.95975593	      4.95956184	      7.27908490	      0.12704400	      4.44667534	    -16.54650691	     -7.49999987	      4.52553705	     -4.18744567	      7.65572257	      3.04271218	      0.05310535	      7.84233911	     -4.80439058	     -7.49999987	     -7.71352963	     -0.25571733	      3.81931670	      6.76844996	    -20.49843688	     13.01031166	    117.96284238	     96.66474393	     -1.43099686	    -17.26580023	      9.78341401	     98.95263740	    105.85802413
      3.86666670	     -4.81525826	     -0.05763569	      4.47742469	      1.54666246	      0.94989274	     -0.34720585	      7.74969934	     -4.05510338	      4.73605208	      7.17537758	      0.12523396	      4.71122778	    -16.14882592	     -7.49999987	      4.37279910	     -4.09819220	      7.78765311	      3.00515081	      0.05244978	      7.84302180	     -4.59586297	     -7.49999987	     -7.58060324	     -0.51069316	      3.66021173	      8.01936776	    -20.71496304	     13.12300632	    120.97545741	     96.19472938	     -0.21319024	    -17.27603101	      9.82379608	    104.27178769	    108.57195900
